<svg xmlns="http://www.w3.org/2000/svg" width="1024" height="1024" viewBox="0 0 120 120"><rect x="0" y="0" width="120" height="120" rx="27" fill="#D95F3B"></rect><g transform="translate(17,17) scale(0.72)">
  
  <rect fill="#FFFFFF" x="14" y="50" width="50" height="46" rx="11"></rect>
  <path stroke="#FFFFFF" d="M31 51 V44 Q31 38 37 38 H41 Q47 38 47 44 V51" fill="none" stroke-width="6" stroke-linecap="round" stroke-linejoin="round"></path>
  <line stroke="#FFFFFF" x1="19" y1="65" x2="59" y2="65" stroke-width="2.3" stroke-linecap="round"></line>
  <rect fill="#FFFFFF" x="72" y="64" width="34" height="32" rx="8.5"></rect>
  <path stroke="#FFFFFF" d="M83 65 V60 Q83 55.5 87.5 55.5 H90.5 Q95 55.5 95 60 V65" fill="none" stroke-width="5" stroke-linecap="round" stroke-linejoin="round"></path>
  <line stroke="#FFFFFF" x1="77" y1="76" x2="101" y2="76" stroke-width="2" stroke-linecap="round"></line>

  
  <path fill="#FFFFFF" d="M84 11 C90 11 94.5 15.5 94.5 21 C94.5 28 84 37 84 37 C84 37 73.5 28 73.5 21 C73.5 15.5 78 11 84 11 Z"></path>
  <circle fill="#D95F3B" cx="84" cy="21" r="3.2"></circle>

</g></svg>